/* XPM */
static char *studio_jahu[] = {
/* columns rows colors chars-per-pixel */
"48 48 181 2 ",
"   c None",
".  c #040404",
"X  c #0B0B0B",
"o  c #141414",
"O  c #1B1B1B",
"+  c #232323",
"@  c #2D2D2D",
"#  c #343434",
"$  c #3C3C3C",
"%  c #434343",
"&  c #4B4B4B",
"*  c #555555",
"=  c #5C5C5C",
"-  c #646464",
";  c #6B6B6B",
":  c #747474",
">  c #7B7B7B",
",  c #9D221E",
"<  c #A0231F",
"1  c #9C2521",
"2  c #9C2925",
"3  c #9C2E2A",
"4  c #9D322E",
"5  c #9A3330",
"6  c #9C3935",
"7  c #9E3D39",
"8  c #A12622",
"9  c #A22A26",
"0  c #A32E2A",
"q  c #A5322E",
"w  c #A63632",
"e  c #A83734",
"r  c #A53835",
"t  c #A83935",
"y  c #AA3E3A",
"u  c #A73F3B",
"i  c #A96706",
"p  c #B66C04",
"a  c #B77F00",
"s  c #AA7309",
"d  c #AA413E",
"f  c #A3423F",
"g  c #B87F26",
"h  c #AC7C3A",
"j  c #A97427",
"k  c #9E4E4C",
"l  c #A64946",
"z  c #AD4946",
"x  c #A54D4A",
"c  c #AF4D4A",
"v  c #AD4541",
"b  c #B14F4C",
"n  c #B1514E",
"m  c #AA5A57",
"M  c #B65956",
"N  c #B85E5B",
"B  c #B35754",
"V  c #BA625F",
"C  c #AE6E6C",
"Z  c #A96866",
"A  c #B66C6A",
"S  c #BB6C6A",
"D  c #B96563",
"F  c #BB7572",
"G  c #BB7A78",
"H  c #AE7776",
"J  c #C27673",
"K  c #C67D7A",
"L  c #C47976",
"P  c #BB8E09",
"I  c #BC8A2D",
"U  c #C69601",
"Y  c #D7AE00",
"T  c #C89924",
"R  c #D79E2F",
"E  c #C79B3B",
"W  c #C7A730",
"Q  c #D8B52D",
"!  c #ECD637",
"~  c #AF865D",
"^  c #BF9A57",
"/  c #B88A45",
"(  c #B0926A",
")  c #B9807F",
"_  c #B49B7B",
"`  c #BCA077",
"'  c #C79B46",
"]  c #C9A247",
"[  c #C2817F",
"{  c #C6AA77",
"}  c #D1B37B",
"|  c #CAA968",
" . c #DBC044",
".. c #DEC75B",
"X. c #E6D54B",
"o. c #9169B8",
"O. c #868686",
"+. c #8B8B8B",
"@. c #939393",
"#. c #9B9B9B",
"$. c #BB8482",
"%. c #BD8987",
"&. c #BD8A89",
"*. c #B89E84",
"=. c #BD9190",
"-. c #A4A4A4",
";. c #ACACAC",
":. c #B3B3B3",
">. c #BBBBBB",
",. c #CA8684",
"<. c #C58D8B",
"1. c #CB8B89",
"2. c #C68886",
"3. c #C4908F",
"4. c #C29998",
"5. c #D19896",
"6. c #C0A681",
"7. c #CCB384",
"8. c #D1BD8B",
"9. c #CEA09E",
"0. c #C4AF91",
"q. c #D5A09E",
"w. c #D1B997",
"e. c #CCA8A7",
"r. c #D2ACAB",
"t. c #D6ACAA",
"y. c #CDBCA7",
"u. c #D1B7A9",
"i. c #CFB3B2",
"p. c #D4B7B6",
"a. c #DBB2B1",
"s. c #D6BBBB",
"d. c #D8BDBD",
"f. c #E1BAB9",
"g. c #D6C28C",
"h. c #EBE49E",
"j. c #D4C6B4",
"k. c #E5D7A7",
"l. c #E0D4BA",
"z. c #C7BCCB",
"x. c #BFC0C0",
"c. c #C2C3C3",
"v. c #CCCDCD",
"b. c #CEC3CA",
"n. c #D3C2C4",
"m. c #DBC4C3",
"M. c #DDCECD",
"N. c #D7CFC0",
"B. c #DDD3CE",
"V. c #D9D1C7",
"C. c #CFD0D0",
"Z. c #D4D4D4",
"A. c #DED2D1",
"S. c #DEDAD4",
"D. c #DCDCDC",
"F. c #D6CCD9",
"G. c #E2CBCB",
"H. c #E5C9C8",
"J. c #EAD0CF",
"K. c #E1D9CC",
"L. c #E1D6D6",
"P. c #EBD3D3",
"I. c #E2DBDB",
"U. c #EDDBDA",
"Y. c #E7D8D5",
"T. c #F0DEDD",
"R. c #E5E3DB",
"E. c #E9E5C8",
"W. c #DEDCE2",
"Q. c #E5E5E5",
"!. c #EDE4E4",
"~. c #E7E7E8",
"^. c #E6E8E8",
"/. c #EBEBEB",
"(. c #ECEAE4",
"). c #F2E5E5",
"_. c #F3ECEC",
"`. c #F8EFEF",
"'. c #F1F1F1",
"]. c #F9F5F5",
"[. c #FEFDFD",
/* pixels */
"                                                                                                ",
"                                                                                                ",
"            Q.Q.Q.Q.Q.Q.~.~.Q.Q.Q.Q.Q.Q.Q.Q.Q.D.Q.Q.W.Q.Q.~.~.Q.Q.Q.Q.Q.~.Q.Q.Q.Q.Q.            ",
"        Q.Q.Q.Q.Q.Q.Q.Q.~.~.~.~.~.~.~.W.Q.S.D.z.l.S.b.Z.B.W.Q.Q.Q.Q.Q.~.~.Q.Q.Q.Q.Q.Q.~.        ",
"      Q.Q.Q.Q.Q.^.^./.'.'.'./.'./._.'.F.S.y.S.g.u.j.h.j.j.b.^.~.~.~.~.~.Q.Q.Q.Q.Q.Q.Q.Q.Q.      ",
"      Q.Q.Q.Q.Q././.'.'.'.'././.'././.(.k.~ ^ Q I E X.h | k./.~.~.Q.~.~.Q.Q.Q.Q.Q.Q.Q.Q.Q.      ",
"    Q.Q.Q.Q.~._.'.'.'.'.'././.'./.'././.} i U ] *.' ! p T E.^.~.Q.Q.Q.Q.Q.Q.Q.Q.Q.Q.Q.Q.Q.Q.    ",
"    Q.Q.Q.Q.'.'.'.'.'.'./././././././.'.w.a Y ..o.*.! p R R.~.Q.Q.Q.Q.Q.Q.Q.Q.Q.Q.Q.Q.Q.Q.Q.    ",
"    Q.Q.^./.'.'./.'./././.~./.'./.'././.w.s P T ( I Q p E R.Q.Q.Q.Q.Q.Q.Q.Q.Q.Q.Q.Q.Q.Q.Q.Q.    ",
"    Q.Q.~./.'.'././././.~.~././././././.y.j I ] ' ] ] g / I.^.Q.Q.Q.Q.Q.Q.Q.Q.Q.Q.Q.Q.Q.Q.Q.    ",
"    Q.Q.~.'.'._./././.~.~./././././.~./.V.6.} 8.w.7.` ` 0.R.Q.Q.Q.Q.Q.Q.Q.Q.Q.Q.Q.Q.Q.Q.Q.Q.    ",
"    Q.Q./.'.'.Q.Q././.~.~././.'./././.~.^.^.~.Q.Q.~.^.^.~.~.~.~.^.Q.^.^.^.Q.D.Q.Q.Q.Q.Q.Q.Q.    ",
"    Q.~./.~.@.% # - x.@.= = = = = : - -.Q.~.@.; Z.>.- = = ; -.Q.:.= >.^.-.& # * :.Q.Q.Q.Q.Q.    ",
"    Q.~.'.#.X o + . # % X X . . X + . - D.~.* X ;.#.. X X . X O.+.. +.@.X X O . O ;.Q.Q.Q.Q.    ",
"    Q.~./.* o #.>.= o ( -.- . = #.: . * Z.~.* o -.#.. = -.O.O + ; . : @ o > ;.H X % Z.Q.Q.Q.    ",
"    Q.~.~.* X +.C.v.#.:.W.+.. > D.;.X = S.~.* X -.#.. : Z.Q.- X % . * X & x.D.D.% o :.Q.Q.Q.    ",
"    Q.~.~.@.. X @ - :.D.Q.@.. > W.:.. = Z.^.= X ;.#.. : W./.O.. # X % . ; Z.Q.Q.- X #.Q.Q.Q.    ",
"    Q.Q.~.D.+.$ o . O ;.~.@.. > W.;.X = Z.Q.* X -.#.. : D./.O.. # X % . ; Z.Q.^.; X #.D.Q.Q.    ",
"    Q.Q.Q.c.c.v.;.= . - Q.@.. : R.;.. = Z.^.* X ;.#.. : D.^.- X & . & X * Z.~.Q.& o -.D.Q.Q.    ",
"    Q.Q.Q.& @ c.Q.;.X = S.@.. > W.x.X $ v.Z.# O ;.#.. : Z.>.+ + = . ; + + :.Q.;.o @ >.R.Q.Q.    ",
"    Q.Q.~.> . @ * @ X O.D.@.. > D.D.$ . $ # . % c.#.. o @ o . ; : . > : . + % O . : v.Q.Q.Q.    ",
"    Q.Q.~.Z.; O X + ; >.Q.-.# O.D.^.>.% o o $ #.Z.:.# @ + # - >.#.# +.Z.: + o + : >.D.Q.Q.Q.    ",
"    Q.Q.Q.~.D.>.-.:.c.W.~.Q.v.v.W.~.~.Z.:.;.>.Z.Q.Q.C.x.x.c.v.D.W.v.v.Q.Q.c.;.:.v.Z.Q.Q.Q.Q.    ",
"    Q.Q.Q.Q.Q.Q.Q.S.m.d.d.d.d.d.j.d.d.d.s.s.p.s.z.j.d.s.d.s.d.d.d.s.s.s.s.M.L.Q.Q.Q.Q.Q.Q.Q.    ",
"    Q.Q.Q.Q.~.L.<.b e w 0 q q q q q q q q q q q q q q q q q q q q q q q q y M e.I.~.Q.Q.Q.Q.    ",
"    Q.Q.Q.Q.m.n 8 8 8 8 8 9 8 8 8 9 8 8 8 8 8 8 8 8 8 8 8 8 8 8 8 8 9 8 8 8 8 9 S S.~.Q.Q.Q.    ",
"    Q.Q.Q.B.b , 8 8 8 8 8 8 8 8 8 8 8 8 9 8 8 8 8 8 8 8 8 8 9 8 8 8 8 8 8 9 8 8 8 F I.Q.Q.Q.    ",
"    Q.Q.Q.[ 8 8 8 8 9 e w 9 9 8 9 e t 9 8 9 9 0 t 0 8 9 9 t e 8 0 t q 8 8 9 e q 8 0 r.^.Q.Q.    ",
"    Q.~.L.v 8 8 8 8 e f.m.r 8 8 v J.T.A 8 9 8 L U.F , 8 n P.q.1 L ).G , 8 B U.5.2 8 S Q.Q.Q.    ",
"    Q.^.p.0 8 8 8 8 e T.(.r 8 , L [.[.e.1 8 < 1.[.$., < M [.p.1 ,.[.%., 1 N [.p.2 8 v L.Q.Q.    ",
"    Q.^.r.9 9 8 8 8 w U.!.7 8 9 a.[.].U.r 8 8 1.[.$., 8 M ].p.1 ,.[.%., < N [.p.2 8 y A.~.Q.    ",
"    Q.^.r.0 8 8 8 8 e T.~.r 8 t T.L.s.].m < , 1.[.%.0 0 V [.p.1 ,.[.%., 8 N [.p.2 8 y M.Q.Q.    ",
"    Q.^.r.9 8 8 8 8 e U.).7 , D [.e.G [.3.1 < 1.[.).J.J.T.[.p.1 ,.[.&.1 8 N [.p.1 8 y M.^.Q.    ",
"    Q.^.r.9 8 8 8 8 w U.!.r < 5.[.C z '.m.0 < 1.[.]._./.'.[.p.1 ,.[.&., < N [.p.1 8 y M.Q.Q.    ",
"    Q.^.r.9 9 b N 3 w U.!.7 0 H.].G D )._.l , 1.[.=.7 7 A [.i.1 ,.[.%., < N [.p.2 8 y M.Q.Q.    ",
"    Q.^.r.9 9 f.).v w U.!.r b `.[.[.[.[.[.G , ,.[.G , , M ].p.1 ,.[.3., , V [.p.1 1 y A.^.Q.    ",
"    Q.^.r.0 8 a.].m v ).I.5 K [.L.r.i.m.[.r., 1.[.$.1 8 B [.p., S [.G.y q q.[.4., 8 d M.Q.Q.    ",
"    Q.^.d.q 1 ,.[.Y.P.[.p.2 f.[.Z 1 , l '.U.r 1.[.$., 8 B [.s.2 y P.[.U.P.[.'.m 1 < c I.Q.Q.    ",
"    Q.Q.S.c 8 t a.'.].M.k w d.m.7 8 8 0 t.M.x J Y.C 1 8 b G.4.2 8 M H.'.'.I.H 1 8 8 F Q.Q.Q.    ",
"    Q.Q.~.<.8 8 0 l x 5 , 9 4 3 1 8 9 9 0 4 2 0 4 2 8 8 9 q 3 1 9 8 4 l x 6 1 9 8 q p.^.Q.Q.    ",
"    Q.Q.~.L.D 8 8 8 , 8 8 8 8 8 8 8 8 8 8 8 8 8 8 8 8 8 8 8 8 9 8 8 8 8 8 8 8 8 9 2.Q.Q.Q.Q.    ",
"    Q.Q.Q.Q.B.S 9 8 8 8 8 8 8 8 8 8 8 8 8 8 8 8 8 8 8 8 8 8 8 8 8 8 8 8 8 < 8 w 2.I.Q.Q.Q.Q.    ",
"      Q.Q.Q.Q.I.e.D z v d d d d d d d d d d d d d d d d d d d d y d y v d b F s.Q.Q.Q.Q.Q.      ",
"      Q.Q.Q.Q.Q.~.Q.L.A.A.A.M.L.A.A.A.A.A.A.A.A.A.A.A.A.A.A.A.A.A.A.A.B.A.I.Q.^.Q.Q.Q.Q.Q.      ",
"        Q.Q.Q.Q.Q.Q.Q.^.Q.Q.Q.Q.Q.^.Q.^.Q.^.Q.Q.Q.Q.Q.~.Q.~.Q.Q.~.Q.Q.~.Q.Q.Q.Q.Q.Q.Q.Q.        ",
"            Q.Q.Q.Q.Q.Q.Q.Q.Q.Q.Q.Q.Q.Q.Q.Q.Q.Q.Q.Q.Q.Q.Q.Q.Q.Q.Q.Q.Q.Q.Q.Q.Q.Q.Q.Q.            ",
"                                                                                                ",
"                                                                                                "
};
